<svg id="Layer_1" data-name="Layer 1" xmlns="http://www.w3.org/2000/svg" viewBox="0 0 106.66 106.66107"><title>ERA_icons</title><path d="M47.81273,100.04035s0,5.51727,6.62072,5.51727,5.51728-6.62073,5.51728-6.62073Z" style="fill:#63c5cb"/><rect x="41.192" y="89.0058" width="25.37945" height="5.51727" style="fill:#63c5cb"/><path d="M51.12309,80.17817V12.86746S47.81273.72946,35.67473,1.83292c0,0-9.93109,3.31036-9.93109,13.24145,0,0-9.93108,1.10345-6.62072,13.24145,0,0-7.72418,9.93109,3.31036,17.65527,0,0-4.41382,7.72418,6.62073,11.03454,0,0,3.31036,8.82763,6.62072,8.82763V80.17817Z" style="fill:#63c5cb"/><path d="M39.79191,94.72953a5.95974,5.95974,0,0,0,6.05286,5.84775h1.0967a7.10358,7.10358,0,0,0,14.06,0h1.09686a5.95971,5.95971,0,0,0,6.05272-5.84775V84.02866H39.79191ZM53.9716,104.6256a5.07783,5.07783,0,0,1-4.96568-4.04832h9.93114A5.07769,5.07769,0,0,1,53.9716,104.6256Zm8.12673-6.08379H45.84477a3.9936,3.9936,0,0,1-3.8678-2.79528H65.966A3.99357,3.99357,0,0,1,62.09833,98.54181ZM41.82738,86.06413h24.2882v2.79554H41.82738Zm0,4.831h24.2882v2.81592H41.82738Z" style="fill:#004d6c"/><path d="M62.01483,5.53068a1.20185,1.20185,0,0,0-.45121,2.361A27.92826,27.92826,0,0,1,84.20523,35.30809a1.20184,1.20184,0,1,0,2.40368,0A30.33464,30.33464,0,0,0,62.01483,5.53068Z" style="fill:#004d6c"/><path d="M56.60389,0,55.3116.00109V78.98072H52.33121V47.02348l.00273-.026c.00142-.02336-.00281-.0455-.00273-.06861V15.23705a1.18256,1.18256,0,0,0-.01217-.121,1.18207,1.18207,0,0,0,.01217-.12092,13.93873,13.93873,0,0,0-27.79783-1.48829c-.04941.01175-.09964.02115-.14874.03362a10.19058,10.19058,0,0,0-6.55772,14.56626,11.50491,11.50491,0,0,0,2.82584,17.85271,8.19524,8.19524,0,0,0-.58555,3.06468,8.53506,8.53506,0,0,0,8.14462,8.51562,12.17689,12.17689,0,0,0,6.9699,9.06581,1.18335,1.18335,0,0,0-.0136.135V81.38444l37.1684-.003v-14.498A35.29294,35.29294,0,0,0,56.60389,0ZM49.92751,15.23705V23.2525a4.82968,4.82968,0,0,0-7.2742,4.17461,1.20184,1.20184,0,1,0,2.40367,0,2.43527,2.43527,0,0,1,4.87053,0V46.92029a2.87926,2.87926,0,0,1-5.74229-.42506,1.2018,1.2018,0,1,0-2.39921-.14535,5.31563,5.31563,0,0,0,.04348,1.0678,5.28488,5.28488,0,0,0,5.21935,4.54,5.34293,5.34293,0,0,0,.75524-.05365,5.25042,5.25042,0,0,0,2.12343-.79729v27.874H37.57183V67.40319a12.14555,12.14555,0,0,0,6.68633-.41214,1.20184,1.20184,0,1,0-.80552-2.26468A9.74486,9.74486,0,0,1,30.474,56.20547l0-.00019L30.474,56.205c-.0146-.21756-.0247-.4363-.0247-.6575A9.67556,9.67556,0,0,1,33.302,48.6609a1.20193,1.20193,0,0,0-1.69977-1.6998A12.05574,12.05574,0,0,0,28.056,55.12082a6.12885,6.12885,0,0,1-5.58507-6.09667,5.72587,5.72587,0,0,1,.3956-2.12163,11.65617,11.65617,0,0,0,1.50632.35366,1.20186,1.20186,0,0,0,.39281-2.37141,9.0973,9.0973,0,0,1-2.23573-17.26632,1.20181,1.20181,0,1,0-.9884-2.191,11.45945,11.45945,0,0,0-1.832,1.0387A7.78473,7.78473,0,0,1,24.491,16.012a13.79911,13.79911,0,0,0,2.7492,7.34716,1.20185,1.20185,0,1,0,1.92192-1.44362,11.53577,11.53577,0,1,1,20.76542-6.92037,1.18207,1.18207,0,0,0,.01219.12092A1.18257,1.18257,0,0,0,49.92751,15.23705Zm10.724,43.72257V78.97776H57.71531V45.828h4.13826A64.9342,64.9342,0,0,0,60.65147,58.95962Zm9.97014,6.08428-.68875.32514V78.97776H63.05519V58.95962a60.5934,60.5934,0,0,1,1.267-13.144c5.90837-.16648,8.22187-1.98429,9.11763-3.5207a4.41014,4.41014,0,0,0-.04374-4.43333,4.29609,4.29609,0,0,0-3.3218-2.18556,5.921,5.921,0,0,0-4.97561,2.19859,14.65174,14.65174,0,0,0-2.65044,5.5496H57.71531V2.4222a32.88968,32.88968,0,0,1,12.9063,62.6217ZM64.97736,43.38364a11.30364,11.30364,0,0,1,1.92017-3.915A3.77215,3.77215,0,0,1,69.583,38.0542a2.2883,2.2883,0,0,1,.23951.01241,1.87058,1.87058,0,0,1,1.48187.97936,2.01212,2.01212,0,0,1,.05863,2.03845C70.99107,41.72224,69.6456,43.127,64.97736,43.38364Z" style="fill:#004d6c"/><path d="M25.43194,31.11169a5.00388,5.00388,0,0,0-1.16236,9.2447A1.20185,1.20185,0,0,0,25.42,38.24588a2.60012,2.60012,0,0,1,.60129-4.80377,1.2019,1.2019,0,0,0-.58937-2.33042Z" style="fill:#004d6c"/><path d="M38.49864,22.59934a1.20191,1.20191,0,0,0-.24526-2.39127A6.82088,6.82088,0,0,0,36.15569,33.2156a1.2018,1.2018,0,1,0,.98614-2.192,4.41723,4.41723,0,0,1,1.35681-8.42427Z" style="fill:#004d6c"/><path d="M39.96435,39.85362a5.53149,5.53149,0,0,1-7.35186-2.64807,1.20188,1.20188,0,0,0-2.17513,1.02319,7.93012,7.93012,0,0,0,15.0773-2.7067,1.20185,1.20185,0,1,0-2.395-.2045A5.54786,5.54786,0,0,1,39.96435,39.85362Z" style="fill:#004d6c"/><path d="M39.21023,57.68247A2.757,2.757,0,0,1,38.14578,53.936a1.20191,1.20191,0,0,0-2.09956-1.17054,5.15836,5.15836,0,0,0,8.22808,6.08245,1.20185,1.20185,0,1,0-1.73555-1.663A2.75335,2.75335,0,0,1,39.21023,57.68247Z" style="fill:#004d6c"/><path d="M38.392,8.525a6.47973,6.47973,0,0,0-6.47242,6.4724,1.20186,1.20186,0,0,0,2.40372,0,4.06876,4.06876,0,0,1,8.13752,0,1.20186,1.20186,0,0,0,2.40371,0A6.47973,6.47973,0,0,0,38.392,8.525Z" style="fill:#004d6c"/></svg>